<svg width="20" height="20" viewBox="0 0 20 20" fill="none" xmlns="http://www.w3.org/2000/svg">
<path fillRule="evenodd" clipRule="evenodd" d="M18.339 5.65948C19.009 6.17848 19.42 6.94948 19.49 7.78848L19.5 7.98948V16.0985C19.5 18.1885 17.849 19.8885 15.78 19.9985H13.79C12.839 19.9795 12.07 19.2395 12 18.3095L11.99 18.1685V15.3095C11.99 14.9985 11.759 14.7395 11.45 14.6885L11.36 14.6785H8.689C8.37 14.6885 8.11 14.9185 8.07 15.2185L8.06 15.3095V18.1595C8.06 18.2185 8.049 18.2885 8.04 18.3385L8.03 18.3595L8.019 18.4285C7.9 19.2795 7.2 19.9285 6.33 19.9895L6.2 19.9985H4.41C2.32 19.9985 0.61 18.3595 0.5 16.2985V7.98948C0.509 7.13848 0.88 6.34848 1.5 5.79848L7.73 0.788477C9 -0.220523 10.78 -0.260523 12.089 0.668477L12.25 0.788477L18.339 5.65948ZM18.099 16.2585L18.11 16.0985V7.99848C18.099 7.56948 17.92 7.16848 17.61 6.86948L17.48 6.75848L11.38 1.87848C10.62 1.26848 9.54 1.23948 8.74 1.76848L8.589 1.87848L2.509 6.77948C2.16 7.03848 1.95 7.42848 1.9 7.83848L1.889 7.99848V16.0985C1.889 17.4285 2.929 18.5185 4.25 18.5985H6.2C6.42 18.5985 6.61 18.4495 6.639 18.2395L6.66 18.0595L6.67 18.0085V15.3095C6.67 14.2395 7.49 13.3695 8.54 13.2885H11.36C12.429 13.2885 13.299 14.1095 13.38 15.1595V18.1685C13.38 18.3785 13.53 18.5595 13.73 18.5985H15.589C16.929 18.5985 18.019 17.5695 18.099 16.2585Z" fill="#BDBDBD"/>
</svg>
